<?xml version="1.0" standalone="no"?><!DOCTYPE svg PUBLIC "-//W3C//DTD SVG 1.1//EN" "http://www.w3.org/Graphics/SVG/1.1/DTD/svg11.dtd"><svg t="1768232147321" class="icon" viewBox="0 0 1024 1024" version="1.1" xmlns="http://www.w3.org/2000/svg" p-id="7355" xmlns:xlink="http://www.w3.org/1999/xlink" width="200" height="200"><path d="M869.587302 544.507937h-325.079365v325.079365c-1.625397 69.892063 53.638095 128.406349 123.530158 130.031746h201.549207c69.892063 1.625397 128.406349-53.638095 130.031746-123.530159V674.539683c0-71.51746-56.888889-130.031746-130.031746-130.031746h-3.250794 3.250794z" fill="#E0C393" p-id="7356"></path><path d="M676.165079 73.142857h195.047619c43.885714 0 81.269841 37.384127 81.269842 81.269841v199.92381c-1.625397 42.260317-35.75873 74.768254-78.019048 74.768254H596.520635V151.161905c-1.625397-42.260317 34.133333-78.019048 79.644444-78.019048m-325.079365 0c22.755556 0 42.260317 8.126984 56.888889 24.380953 14.628571 14.628571 22.755556 35.75873 22.755556 56.888888v276.317461H151.161905c-43.885714-1.625397-79.644444-39.009524-78.019048-82.895238V154.412698v-4.87619c1.625397-42.260317 35.75873-74.768254 78.019048-74.768254h193.422222l6.501587-1.625397m518.501588 518.501587c45.511111 1.625397 81.269841 39.009524 81.269841 82.895239v199.923809c-1.625397 42.260317-35.75873 74.768254-78.019048 74.768254H672.914286c-42.260317-1.625397-76.393651-37.384127-74.768254-79.644444v-276.317461h276.31746l-4.87619-1.625397m-718.425397 1.625397h277.942857v279.568254c-1.625397 43.885714-35.75873 78.019048-79.644445 78.019048H156.038095c-45.511111 0-82.895238-37.384127-84.520635-81.269841v-195.047619-4.876191c3.250794-43.885714 37.384127-76.393651 79.644445-76.393651m525.003174-568.888889c-71.51746 0-130.031746 56.888889-131.657142 126.780953v328.330158h328.330158c68.266667 0 125.155556-53.638095 126.780953-123.530158V154.412698c0-71.51746-56.888889-130.031746-128.40635-130.031746H676.165079z m-325.079365 0H151.161905c-68.266667 0-125.155556 53.638095-126.780953 123.530159V346.209524c-1.625397 71.51746 53.638095 131.657143 125.155556 133.282539h328.330159v-325.079365c1.625397-71.51746-55.263492-130.031746-126.780953-130.031746z m518.501588 520.126985h-3.250794 3.250794-325.079365v325.079365c-1.625397 69.892063 53.638095 128.406349 123.530158 130.031746h204.8c68.266667 0 125.155556-53.638095 126.780953-123.530159V674.539683c0-71.51746-56.888889-130.031746-130.031746-130.031746z m-718.425397 0c-68.266667 0-125.155556 53.638095-126.780953 123.530158v201.549207c1.625397 73.142857 60.139683 130.031746 133.28254 130.031746h193.422222c69.892063 0 126.780952-55.263492 128.406349-125.155556V544.507937H151.161905z" fill="#333333" p-id="7357"></path></svg>