<?xml version="1.0" standalone="no"?><!DOCTYPE svg PUBLIC "-//W3C//DTD SVG 1.1//EN" "http://www.w3.org/Graphics/SVG/1.1/DTD/svg11.dtd"><svg t="1767529636062" class="icon" viewBox="0 0 1024 1024" version="1.1" xmlns="http://www.w3.org/2000/svg" p-id="14164" xmlns:xlink="http://www.w3.org/1999/xlink" width="200" height="200"><path d="M727.4 506a208 208 0 1 0-238.8 0A288.4 288.4 0 0 0 320 768v64a64.1 64.1 0 0 0 64 64h448a64.1 64.1 0 0 0 64-64v-64a288.4 288.4 0 0 0-168.6-262z m-263.4-170A144 144 0 1 1 608 480a144.2 144.2 0 0 1-144-144z m368 496H384v-64a224 224 0 0 1 448 0zM256 832a64.1 64.1 0 0 1-64-64V320a64.1 64.1 0 0 1 64-64h96a32 32 0 0 0 0-64h-96A128.1 128.1 0 0 0 128 320v448a128.1 128.1 0 0 0 128 128 32 32 0 1 0 0-64z" fill="#333333" p-id="14165"></path><path d="M256 448h32a32 32 0 0 0 0-64h-32a32 32 0 0 0 0 64zM256 576H320a32 32 0 1 0 0-64h-64a32 32 0 1 0 0 64z" fill="#333333" p-id="14166"></path></svg>