<?xml version="1.0" standalone="no"?><!DOCTYPE svg PUBLIC "-//W3C//DTD SVG 1.1//EN" "http://www.w3.org/Graphics/SVG/1.1/DTD/svg11.dtd"><svg t="1767143143401" class="icon" viewBox="0 0 1024 1024" version="1.1" xmlns="http://www.w3.org/2000/svg" p-id="6877" xmlns:xlink="http://www.w3.org/1999/xlink" width="200" height="200"><path d="M704 192a230.4 230.4 0 0 1 105.472 435.328L806.4 627.2a153.6 153.6 0 0 1 153.6 153.6v128a51.2 51.2 0 0 1-51.2 51.2H499.2a51.2 51.2 0 0 1-51.2-51.2v-128a153.6 153.6 0 0 1 150.528-153.6A230.4 230.4 0 0 1 704 192z" fill="#156AEF" p-id="6878"></path><path d="M384 32a288 288 0 0 1 139.968 539.776L515.904 576l3.264 0.064A192 192 0 0 1 704 768v160a64 64 0 0 1-64 64H128a64 64 0 0 1-64-64V768a192 192 0 0 1 188.16-192A288 288 0 0 1 384 32z" fill="#D8EFFF" p-id="6879"></path><path d="M384 48a272 272 0 0 0-132.608 509.44l8.064 4.352 56.192 28.992-63.232 1.28a176 176 0 0 0-172.288 168.768L80 768v160c0 24.96 19.008 45.44 43.392 47.808L128 976h512a48 48 0 0 0 47.808-43.392l0.192-4.608V768a176 176 0 0 0-162.112-175.488l-7.04-0.384-64.512-1.28 61.824-33.088A272 272 0 0 0 384 48z" fill="#80BBFF" p-id="6880"></path><path d="M423.36 203.584a32 32 0 0 1 45.376-3.968l7.552 8.192a275.84 275.84 0 0 0 52.544 45.312c37.12 24.32 73.472 33.92 108.032 24.576l18.752-6.976 13.056 63.872c-59.392 22.208-119.04 8.704-174.976-28.032a331.584 331.584 0 0 1-39.232-30.336L448.64 270.72l-8.96 8.768C359.04 354.56 252.16 383.296 122.048 365.568l-18.752-2.88v-62.016c136.192 22.784 248.32-10.368 320.128-97.088z" fill="#D8EFFF" p-id="6881"></path><path d="M416 672l0.064 104.576a64 64 0 1 1-64.064 0V672h64z" fill="#D8EFFF" p-id="6882"></path></svg>