<?xml version="1.0" standalone="no"?><!DOCTYPE svg PUBLIC "-//W3C//DTD SVG 1.1//EN" "http://www.w3.org/Graphics/SVG/1.1/DTD/svg11.dtd"><svg t="1767143112249" class="icon" viewBox="0 0 1024 1024" version="1.1" xmlns="http://www.w3.org/2000/svg" p-id="4843" xmlns:xlink="http://www.w3.org/1999/xlink" width="200" height="200"><path d="M529.075399 63.978127c57.933457 0 114.12934 11.343349 167.027108 33.716916 51.101865 21.614274 97.002264 52.5611 136.425136 91.980901 39.421848 39.420825 70.373791 85.319178 91.991134 136.420019 22.376637 52.896744 33.723056 109.09672 33.723056 167.040411 0 57.936527-11.346419 114.12934-33.723056 167.025061-21.618367 51.096748-52.569286 96.992031-91.991134 136.411833-39.422871 39.418778-85.326341 70.365604-136.425136 91.977831-52.894697 22.37152-109.090581 33.715893-167.027108 33.715893-57.936527 0-114.130364-11.343349-167.021991-33.715893-51.096748-21.611204-96.987938-52.555983-136.40774-91.976808-39.416731-39.418778-70.361511-85.313038-91.974761-136.411833-22.369473-52.892651-33.712823-109.087511-33.712823-167.026084 0-57.944713 11.343349-114.145713 33.713846-167.041434 21.61325-51.101865 52.557006-97.000218 91.974761-136.420019 39.418778-39.418778 85.310991-70.366627 136.406716-91.979878C414.945035 75.321476 471.138872 63.978127 529.075399 63.978127M529.075399 43.512003c-248.28683 0-449.583438 201.302749-449.583438 449.624371 0 248.295016 201.296609 449.593671 449.583438 449.593671 248.281713 0 449.635627-201.301725 449.635627-449.593671C978.711026 244.814752 777.357112 43.512003 529.075399 43.512003L529.075399 43.512003z" fill="#231815" p-id="4844"></path><path d="M453.74676 361.934193c-23.043832 0-41.827641 18.584264-41.827641 41.729403 0 23.044856 18.783809 41.879829 41.827641 41.879829 23.042809 0 41.879829-18.834974 41.879829-41.879829C495.626589 380.51948 476.789569 361.934193 453.74676 361.934193z" fill="#231815" p-id="4845"></path><path d="M481.999221 580.997444l118.224612-124.834146 0-197.272969L307.420113 258.890328l0 453.107705 219.164558 0 0-35.817764 0-24.39869L526.584672 599.534636l-61.366649 0L481.999221 580.997444zM354.458429 404.765697c0-54.953589 44.334741-99.487875 99.288331-99.487875 55.054897 0 99.539041 44.534286 99.539041 99.487875 0 54.903447-44.485167 99.388615-99.539041 99.388615C398.79317 504.153288 354.458429 459.669144 354.458429 404.765697z" fill="#231815" p-id="4846"></path><path d="M748.603231 540.723182l-24.645306-26.15059-74.741261-79.049381-136.51007 144.17361 36.471656 0 0 57.70833 0 19.936051 0 47.941895c0 3.758604 3.056616 6.713912 6.711865 6.713912l22.943548 0 10.070356 0 122.83256 0 16.73208 0 13.924127 0c3.756557 0 6.713912-2.955308 6.713912-6.713912l0-47.941895 0-19.936051 0-57.70833 36.470633 0L748.603231 540.723182z" fill="#231815" p-id="4847"></path></svg>